<?xml version="1.0" standalone="no"?>
<!DOCTYPE svg PUBLIC "-//W3C//DTD SVG 20010904//EN"
 "http://www.w3.org/TR/2001/REC-SVG-20010904/DTD/svg10.dtd">
 
<svg version="1.0" xmlns="http://www.w3.org/2000/svg"
 width="512.000000pt" height="512.000000pt" viewBox="0 0 512.000000 512.000000"
 preserveAspectRatio="xMidYMid meet">

<g transform="translate(0.000000,512.000000) scale(0.100000,-0.100000)"
fill="#ffffff" stroke="none">
    <path d="M4970 4878 c-210 -45 -296 -65 -434 -104 -595 -169 -1215 -487 -1783
    -915 -82 -61 -152 -113 -158 -115 -5 -2 -57 37 -115 87 -274 237 -606 492
    -900 688 -458 307 -565 353 -825 353 -153 1 -240 -14 -387 -62 -187 -63 -274
    -128 -331 -248 -28 -59 -32 -78 -32 -153 0 -75 3 -92 30 -144 35 -69 90 -115
    167 -140 102 -34 405 -168 608 -269 341 -171 659 -361 969 -579 80 -56 149
    -105 155 -109 5 -3 -62 -82 -149 -175 -385 -409 -694 -795 -984 -1228 -298
    -445 -351 -568 -351 -820 0 -224 86 -514 184 -623 110 -121 276 -161 418 -100
    73 31 117 88 162 209 49 133 170 407 253 573 255 510 611 1050 996 1513 l110
    133 101 -93 c146 -133 453 -441 591 -592 353 -386 659 -770 1050 -1315 195
    -272 245 -339 299 -397 68 -75 97 -49 76 68 -164 940 -666 1901 -1438 2753
    -64 70 -121 134 -125 140 -19 25 423 428 815 743 182 147 463 358 728 548 129
    92 262 188 295 213 76 57 155 133 155 148 0 25 -65 30 -150 12z"/>
</g>
</svg>
